<svg width="17" height="21" viewBox="0 0 17 21" fill="none" xmlns="http://www.w3.org/2000/svg">
<path d="M10.3457 8.03906H9.11523C9.11523 8.3783 8.83924 8.6543 8.5 8.6543C8.16076 8.6543 7.88477 8.3783 7.88477 8.03906H6.6543C6.6543 9.05678 7.48228 9.88477 8.5 9.88477C9.51772 9.88477 10.3457 9.05678 10.3457 8.03906Z" fill="#667380"/>
<path d="M13.5903 13.1055L10.3457 12.4566V12.3457V11.9147C11.8339 11.207 12.8066 9.7004 12.8066 8.03906V3.07617C12.8066 1.37997 11.4267 0 9.73047 0H7.26953C5.57333 0 4.19336 1.37997 4.19336 3.07617V8.03906C4.19336 9.7004 5.16609 11.2069 6.6543 11.9147V12.3457V12.4566L3.40967 13.1055C1.72483 13.4425 0.501953 14.9341 0.501953 16.6523V21H16.498V16.6523C16.498 14.9341 15.2752 13.4425 13.5903 13.1055ZM5.42383 3.07617C5.42383 2.05845 6.25181 1.23047 7.26953 1.23047H9.73047C10.7482 1.23047 11.5762 2.05845 11.5762 3.07617V3.73242H9.47564L8.24517 4.96289H5.42383V3.07617ZM7.47559 10.9247C6.24837 10.4884 5.42383 9.3288 5.42383 8.03906V6.19336H8.75483L9.9853 4.96289H11.5762V8.03906C11.5762 9.3288 10.7516 10.4884 9.52441 10.9247L9.11523 11.0702V12.3457H7.88477V11.0702L7.47559 10.9247ZM9.11523 13.5762V14.8066H7.88477V13.5762H9.11523ZM7.81319 16.0371H9.18676L9.64946 19.7695H7.3505L7.81319 16.0371ZM1.73242 16.6523C1.73242 15.5186 2.53928 14.5344 3.65101 14.312L6.6543 13.7114V15.3839L6.11063 19.7695H4.19336V17.2676H2.96289V19.7695H1.73242V16.6523ZM15.2676 19.7695H14.0371V17.2676H12.8066V19.7695H10.8894L10.3457 15.3839V13.7114L13.349 14.3121C14.4607 14.5344 15.2676 15.5186 15.2676 16.6523V19.7695Z" fill="#667380"/>
</svg>
