<svg width="21" height="21" viewBox="0 0 21 21" fill="none" xmlns="http://www.w3.org/2000/svg">
<path d="M10.0764 2.31786C10.0764 1.90184 9.87296 1.11853 8.51018 0.546898C7.66937 0.194207 6.56487 0 5.40003 0C4.2352 0 3.1307 0.194207 2.28988 0.546898C0.92711 1.11857 0.723633 1.90188 0.723633 2.3179C0.723633 2.37064 0.726955 2.4293 0.735404 2.49266H0.723674V4.65499C0.723674 4.70794 0.727037 4.76684 0.735568 4.8305H0.723674V6.99282C0.723674 7.04577 0.727037 7.10467 0.735568 7.16829H0.723674V9.33061C0.723674 9.38356 0.727037 9.44246 0.735568 9.50612H0.723674V11.6684C0.723674 11.7214 0.727037 11.7803 0.735568 11.8439H0.723674V14.0062C0.723674 14.0592 0.727037 14.1181 0.735568 14.1817H0.723674V16.3441C0.723674 16.397 0.727037 16.4559 0.735568 16.5195H0.723674V18.6819C0.723674 19.0979 0.927151 19.8813 2.28984 20.453C3.13053 20.8057 4.23512 20.9999 5.40003 20.9999C6.56491 20.9999 7.66945 20.8057 8.51022 20.453C9.87288 19.8813 10.0764 19.098 10.0764 18.6819V16.5195H10.0645C10.073 16.4559 10.0764 16.397 10.0764 16.3441V14.1817H10.0645C10.073 14.1181 10.0764 14.0591 10.0764 14.0062V11.8439H10.0645C10.073 11.7803 10.0764 11.7214 10.0764 11.6684V9.50612H10.0645C10.073 9.4425 10.0764 9.38352 10.0764 9.33061V7.16829H10.0645C10.073 7.10467 10.0764 7.04573 10.0764 6.99282V4.8305H10.0645C10.073 4.76688 10.0764 4.7079 10.0764 4.65499V2.49266H10.0646C10.0731 2.4293 10.0764 2.3706 10.0764 2.31786ZM8.84893 18.6818C8.84889 18.9983 7.64033 19.7724 5.40003 19.7724C3.15974 19.7724 1.95118 18.9983 1.95118 18.6818V17.9567C2.05536 18.0109 2.16778 18.0639 2.28993 18.1151C3.13062 18.4678 4.2352 18.662 5.40012 18.662C6.56499 18.662 7.66953 18.4678 8.51026 18.1151C8.63237 18.0639 8.74483 18.0109 8.84901 17.9567V18.6818H8.84893ZM8.84893 16.3439C8.84893 16.6605 7.64037 17.4345 5.40007 17.4345C3.15978 17.4345 1.95122 16.6605 1.95122 16.3439V15.6189C2.0554 15.6731 2.16778 15.726 2.28993 15.7773C3.13062 16.13 4.2352 16.3242 5.40012 16.3242C6.56499 16.3242 7.66953 16.13 8.51031 15.7773C8.63241 15.726 8.74483 15.6731 8.84901 15.6189V16.3439H8.84893ZM8.84893 14.0062C8.84889 14.3227 7.64033 15.0968 5.40003 15.0968C3.15974 15.0968 1.95118 14.3227 1.95118 14.0062V13.2811C2.05536 13.3353 2.16778 13.3883 2.28993 13.4395C3.13062 13.7922 4.2352 13.9864 5.40012 13.9864C6.56499 13.9864 7.66953 13.7922 8.51026 13.4395C8.63237 13.3883 8.74483 13.3353 8.84901 13.2811V14.0062H8.84893ZM8.84893 11.6684C8.84889 11.9849 7.64033 12.759 5.40003 12.759C3.15974 12.759 1.95118 11.9849 1.95118 11.6684V10.9433C2.05536 10.9975 2.16778 11.0505 2.28993 11.1017C3.13062 11.4544 4.2352 11.6486 5.40012 11.6486C6.56499 11.6486 7.66953 11.4544 8.51031 11.1017C8.63241 11.0505 8.74483 10.9975 8.84901 10.9433V11.6684H8.84893ZM8.84893 9.33057C8.84889 9.64709 7.64033 10.4212 5.40003 10.4212C3.15974 10.4212 1.95118 9.64709 1.95118 9.33053V8.6055C2.05536 8.65973 2.16778 8.71272 2.28993 8.7639C3.13062 9.11659 4.2352 9.31084 5.40012 9.31084C6.56499 9.31084 7.66953 9.11659 8.51026 8.7639C8.63237 8.71268 8.74483 8.65968 8.84901 8.6055V9.33057H8.84893ZM8.84893 6.99274C8.84889 7.3093 7.64033 8.08338 5.40003 8.08338C3.15974 8.08338 1.95118 7.30926 1.95118 6.99278V6.26767C2.05536 6.32189 2.16778 6.37489 2.28993 6.42607C3.13062 6.7788 4.2352 6.97301 5.40012 6.97301C6.56499 6.97301 7.66953 6.77876 8.51031 6.42607C8.63241 6.37485 8.74483 6.32185 8.84901 6.26767V6.99274H8.84893ZM1.95118 4.65499V3.93046C2.0554 3.98468 2.16782 4.03767 2.28993 4.08886C3.1307 4.44155 4.23524 4.63576 5.40007 4.63576C6.56491 4.63576 7.66941 4.44155 8.51022 4.08886C8.63233 4.03763 8.74475 3.98464 8.84897 3.9305V4.65499C8.84897 4.97147 7.64041 5.74559 5.40012 5.74559C3.15982 5.74559 1.95118 4.97155 1.95118 4.65499ZM5.40003 3.40833C3.1597 3.40833 1.9511 2.63437 1.9511 2.3179C1.9511 2.00142 3.1597 1.22747 5.40003 1.22747C7.64037 1.22747 8.84897 2.00142 8.84897 2.3179C8.84897 2.63433 7.64037 3.40833 5.40003 3.40833Z" fill="#FED700"/>
<path d="M20.2757 11.6399C20.2757 11.2239 20.0721 10.4405 18.7094 9.86896C17.8686 9.51627 16.7641 9.32202 15.5993 9.32202C14.4344 9.32202 13.3299 9.51627 12.4891 9.86896C11.1263 10.4406 10.9229 11.2239 10.9229 11.6399C10.9229 11.6927 10.9262 11.7513 10.9347 11.8147H10.9229V13.977C10.9229 14.03 10.9263 14.0889 10.9348 14.1525H10.9229V16.3148C10.9229 16.3678 10.9263 16.4267 10.9348 16.4903H10.9229V18.6526C10.9229 19.0687 11.1264 19.852 12.4891 20.4237C13.3298 20.7764 14.4343 20.9706 15.5993 20.9706C16.7642 20.9706 17.8687 20.7764 18.7094 20.4237C20.0721 19.852 20.2756 19.0687 20.2756 18.6526V16.4902H20.2637C20.2722 16.4266 20.2756 16.3676 20.2756 16.3148V14.1524H20.2637C20.2722 14.0888 20.2756 14.0299 20.2756 13.977V11.8146H20.2638C20.2723 11.7514 20.2757 11.6927 20.2757 11.6399ZM12.4891 15.7481C13.3298 16.1009 14.4344 16.2951 15.5993 16.2951C16.7642 16.2951 17.8687 16.1008 18.7095 15.7481C18.8316 15.6969 18.944 15.6439 19.0482 15.5897V16.3148C19.0482 16.6313 17.8396 17.4054 15.5993 17.4054C13.359 17.4054 12.1505 16.6314 12.1505 16.3148V15.5897C12.2546 15.6439 12.367 15.6969 12.4891 15.7481ZM12.1504 13.977V13.2525C12.2547 13.3067 12.3671 13.3597 12.4892 13.4109C13.3299 13.7636 14.4345 13.9578 15.5993 13.9578C16.7642 13.9578 17.8687 13.7636 18.7095 13.4109C18.8316 13.3597 18.9441 13.3067 19.0482 13.2525V13.977C19.0482 14.2935 17.8396 15.0676 15.5994 15.0676C13.359 15.0676 12.1504 14.2935 12.1504 13.977ZM19.0482 18.6526C19.0482 18.9691 17.8396 19.7432 15.5993 19.7432C13.359 19.7432 12.1505 18.9691 12.1505 18.6526V17.9275C12.2547 17.9817 12.3671 18.0347 12.4892 18.0859C13.3299 18.4387 14.4345 18.6329 15.5994 18.6329C16.7643 18.6329 17.8688 18.4387 18.7096 18.0859C18.8317 18.0347 18.9441 17.9817 19.0483 17.9275V18.6526H19.0482ZM15.5993 12.7304C13.359 12.7304 12.1504 11.9564 12.1504 11.64C12.1504 11.3235 13.359 10.5495 15.5993 10.5495C17.8396 10.5495 19.0482 11.3235 19.0482 11.64C19.0482 11.9564 17.8396 12.7304 15.5993 12.7304Z" fill="#FED700"/>
</svg>
