<svg width="21" height="21" viewBox="0 0 21 21" fill="none" xmlns="http://www.w3.org/2000/svg">
<path d="M13.4219 9.67475C13.1544 9.18559 12.7489 8.80415 12.3913 8.46757C12.3324 8.4122 12.2741 8.35732 12.2172 8.30269C11.9965 8.09084 11.7751 7.88835 11.5609 7.69254C11.3522 7.50173 11.1364 7.30441 10.9266 7.10298L10.5005 6.69385L10.0743 7.10302C9.86455 7.30449 9.64873 7.50177 9.44 7.69258C9.22582 7.88839 9.00437 8.09088 8.78375 8.30273C8.72682 8.3574 8.6685 8.41224 8.60964 8.46761C8.25198 8.80415 7.84655 9.18563 7.579 9.67483C7.20338 10.3618 7.21606 11.159 7.61305 11.8074C8.00343 12.4451 8.61067 12.7992 9.3229 12.8045C9.51272 12.8062 9.7016 12.7821 9.88522 12.7342V13.453H11.1157V12.734C11.2941 12.7805 11.4774 12.8045 11.6619 12.8045C11.6673 12.8045 11.6726 12.8045 11.678 12.8044C12.3902 12.7991 12.9975 12.445 13.3879 11.8074C13.7848 11.159 13.7975 10.3618 13.4219 9.67475ZM12.3385 11.1649C12.1689 11.4418 11.9561 11.5718 11.6688 11.574C11.4863 11.576 11.3028 11.5216 11.1377 11.4174L10.5005 11.0182L9.86172 11.4184C9.70016 11.5202 9.51957 11.574 9.33894 11.574C9.33664 11.574 9.33438 11.574 9.33213 11.574C9.04482 11.5718 8.83203 11.4418 8.66247 11.1649C8.49361 10.889 8.49225 10.5695 8.65861 10.2652C8.83227 9.94767 9.14781 9.65083 9.45288 9.36372C9.51481 9.30548 9.57613 9.24773 9.63601 9.19027C9.84577 8.9888 10.0616 8.79151 10.2703 8.60067C10.3462 8.53127 10.4231 8.46101 10.5005 8.38977C10.5779 8.46097 10.6547 8.53123 10.7306 8.60067C10.9393 8.79147 11.1551 8.9888 11.3649 9.19027C11.4248 9.24773 11.4861 9.30548 11.548 9.36372C11.8531 9.65083 12.1686 9.94767 12.3423 10.2652C12.5087 10.5695 12.5073 10.8891 12.3385 11.1649Z" fill="#667380"/>
<path d="M17.9246 3.07539C15.9414 1.09221 13.3046 0 10.5 0C7.69535 0 5.05858 1.09221 3.07535 3.07539C1.09221 5.05858 0 7.69535 0 10.5C0 13.3046 1.09221 15.9415 3.07535 17.9246C5.05858 19.9078 7.69535 21 10.5 21C13.3046 21 15.9414 19.9078 17.9246 17.9246C19.9078 15.9415 21 13.3046 21 10.5C21 7.69535 19.9078 5.05858 17.9246 3.07539ZM19.7479 9.87304L17.4109 9.87603C17.3378 9.05937 17.1226 8.28311 16.7903 7.57198L18.8128 6.40196C19.3371 7.46115 19.6647 8.63408 19.7479 9.87304ZM18.1954 5.33769L16.1727 6.50779C15.7111 5.85391 15.1395 5.2831 14.485 4.82237L15.6525 2.79825C16.6557 3.47156 17.5208 4.33539 18.1954 5.33769ZM11.1152 1.25139C12.3544 1.33301 13.5278 1.65908 14.5875 2.18195L13.4201 4.20599C12.7086 3.87458 11.9321 3.66044 11.1152 3.58833V1.25139ZM9.88477 1.25139V3.58833C9.05576 3.66151 8.26822 3.88098 7.54811 4.22088L6.37046 2.20287C7.44118 1.66778 8.62915 1.33407 9.88477 1.25139ZM5.30849 2.82434L6.48613 4.84239C5.83406 5.30636 5.26567 5.88033 4.80736 6.53662L2.77889 5.37686C3.44851 4.37099 4.3089 3.50257 5.30849 2.82434ZM2.16628 6.44401L4.19483 7.6038C3.86621 8.31641 3.65503 9.09374 3.586 9.91102L1.24917 9.91988C1.32612 8.68005 1.64756 7.50549 2.16628 6.44401ZM1.2536 11.1503L3.59067 11.1415C3.66585 11.9578 3.88295 12.7336 4.21714 13.4439L2.19762 14.619C1.67057 13.561 1.3399 12.3889 1.2536 11.1503ZM2.81765 15.6818L4.83738 14.5067C5.30053 15.1593 5.87372 15.7285 6.5294 16.1876L5.36706 18.2147C4.36205 17.5438 3.49465 16.6824 2.81765 15.6818ZM6.43351 18.8285L7.59585 16.8014C8.30808 17.131 9.08512 17.3432 9.90228 17.4132L9.90819 19.7501C8.66857 19.6716 7.49442 19.3486 6.43351 18.8285ZM4.7912 10.5C4.7912 7.35213 7.35217 4.79124 10.5 4.79124C13.6478 4.79124 16.2088 7.35217 16.2088 10.5C16.2088 13.6478 13.6478 16.2088 10.5 16.2088C7.35217 16.2088 4.7912 13.6479 4.7912 10.5ZM11.1387 19.7471L11.1327 17.4101C11.9492 17.336 12.7252 17.1198 13.436 16.7866L14.6085 18.8076C13.5499 19.3333 12.3774 19.6624 11.1387 19.7471ZM15.6721 18.1889L14.4994 16.1676C15.1527 15.7053 15.7227 15.1329 16.1826 14.4778L18.2082 15.6427C17.5361 16.6468 16.6735 17.5131 15.6721 18.1889ZM16.7977 13.4121C17.1282 12.7002 17.3414 11.9234 17.4124 11.1065L19.7494 11.1035C19.6693 12.343 19.3448 13.5167 18.8233 14.577L16.7977 13.4121Z" fill="#667380"/>
</svg>
