<svg width="15" height="15" viewBox="0 0 15 15" fill="none" xmlns="http://www.w3.org/2000/svg">
<circle cx="7.5" cy="7.5" r="7.5" fill="#55657E"/>
<path d="M7.14903 5.901C7.51303 5.901 7.86403 5.901 8.22803 5.901C8.48803 5.901 8.64403 6.018 8.64403 6.278C8.64403 6.486 8.61803 6.707 8.57903 6.915C8.43603 7.695 8.29303 8.488 8.15003 9.268C8.09803 9.528 8.04603 9.788 8.02003 10.048C8.00703 10.178 8.02003 10.308 8.05903 10.425C8.09803 10.594 8.22803 10.685 8.39703 10.659C8.54003 10.646 8.67003 10.594 8.81303 10.542C8.91703 10.503 9.02103 10.425 9.12503 10.386C9.28103 10.321 9.42403 10.438 9.37203 10.594C9.34603 10.685 9.29403 10.789 9.21603 10.854C8.81303 11.257 8.33203 11.504 7.76003 11.504C7.48703 11.504 7.22703 11.504 6.95403 11.465C6.51203 11.4 5.95303 10.854 6.03103 10.282C6.08303 9.879 6.14803 9.489 6.21303 9.099C6.33003 8.41 6.44703 7.721 6.57703 7.032C6.59003 6.993 6.59003 6.941 6.59003 6.902C6.59003 6.616 6.49903 6.512 6.21303 6.473C6.09603 6.46 5.96603 6.447 5.84903 6.408C5.70603 6.356 5.64103 6.252 5.65403 6.135C5.66703 6.018 5.74503 5.94 5.90103 5.914C5.97903 5.901 6.07003 5.901 6.14803 5.901C6.47303 5.901 6.81103 5.901 7.14903 5.901Z" fill="white"/>
<path d="M7.78603 3.19699C8.39703 3.19699 8.87803 3.69099 8.87803 4.31499C8.87803 4.92599 8.38403 5.41999 7.78603 5.41999C7.17503 5.41999 6.68103 4.91299 6.68103 4.30199C6.68103 3.69099 7.17503 3.19699 7.78603 3.19699Z" fill="white"/>
</svg>
