<svg width="21" height="21" viewBox="0 0 21 21" fill="none" xmlns="http://www.w3.org/2000/svg">
<path d="M18.2989 7.79832L17.1445 5.45947L15.9901 7.79832L13.4092 8.17339L15.2768 9.99378L14.8359 12.5645L17.1445 11.3508L19.4531 12.5645L19.0121 9.99378L20.8798 8.17339L18.2989 7.79832ZM17.8188 10.3152L17.1445 9.96062L16.4701 10.3152L16.5989 9.56424L16.0534 9.03248L16.8074 8.92305L17.1445 8.23988L17.4817 8.92305L18.2356 9.03264L17.69 9.5644L17.8188 10.3152Z" fill="#667380"/>
<path d="M5.00983 7.79832L3.85547 5.45947L2.70174 7.7972L0.0487061 8.17339L1.98669 10.0004L1.5469 12.5645L3.85547 11.3508L6.16404 12.5645L5.72312 9.99378L7.59077 8.17339L5.00983 7.79832ZM4.52982 10.3152L3.85547 9.96062L3.18111 10.3152L3.31105 9.55783L2.75381 9.03248L3.51773 8.92417L3.85547 8.23988L4.19273 8.92305L4.94655 9.03264L4.40101 9.5644L4.52982 10.3152Z" fill="#667380"/>
<path d="M11.1152 14.8477H8.6543V16.0781H9.88477V17.3086H8.6543V18.5391H12.3457V17.3086H11.1152V14.8477Z" fill="#667380"/>
<path d="M21 21V16.0781H14.8066V12.3867H6.19336V14.8477H0V21H21ZM19.7695 17.3086V19.7695H14.8066V17.3086H19.7695ZM7.42383 13.6172H13.5762V19.7695H7.42383V13.6172ZM1.23047 19.7695V16.0781H6.19336V19.7695H1.23047Z" fill="#667380"/>
<path d="M12.2247 7.1835C12.4849 6.87428 12.7509 6.55785 12.9717 6.23405C13.7897 6.23117 14.5615 5.89359 15.1458 5.28252C15.7205 4.68123 16.0371 3.89761 16.0371 3.07617V1.23047H13.5762V0H7.42383V1.23047H4.96289V3.07617C4.96289 3.89761 5.27948 4.68123 5.85418 5.28252C6.43849 5.89359 7.21026 6.23117 8.02833 6.23405C8.24911 6.55785 8.51507 6.87428 8.77526 7.1835C9.32064 7.8319 9.88477 8.50225 9.88477 9.06173V9.92578H8.6543V11.1562H12.3457V9.92578H11.1152V9.06173C11.1152 8.50225 11.6794 7.8319 12.2247 7.1835ZM14.8066 2.46094V3.07617C14.8066 3.91347 14.2638 4.64614 13.5332 4.90441C13.5618 4.73554 13.5762 4.56347 13.5762 4.38867V2.46094H14.8066ZM6.19336 3.07617V2.46094H7.42383V4.38867C7.42383 4.56347 7.43825 4.73554 7.46677 4.90441C6.73618 4.64614 6.19336 3.91347 6.19336 3.07617ZM9.71686 6.39139C9.35941 5.96649 9.02168 5.56515 8.84351 5.20386C8.7179 4.94943 8.6543 4.67514 8.6543 4.38867V1.23047H12.3457V4.38867C12.3457 4.67514 12.2821 4.94943 12.1565 5.20386C11.9783 5.56515 11.6406 5.96649 11.2831 6.39139C11.0181 6.70638 10.7387 7.03851 10.5 7.3889C10.2613 7.03851 9.98186 6.70638 9.71686 6.39139Z" fill="#667380"/>
</svg>
