<svg width="19" height="21" viewBox="0 0 19 21" fill="none" xmlns="http://www.w3.org/2000/svg">
<path d="M11.3457 0C11.007 0 10.659 0.0692139 10.3277 0.219658L0.271484 3.87566V21H13.8066V2.46094C13.8066 1.1039 12.7027 0 11.3457 0ZM8.92081 2.04037C8.8971 2.17767 8.88477 2.31818 8.88477 2.46094C8.88477 2.90891 9.00509 3.32932 9.21497 3.69141H4.37962L8.92081 2.04037ZM12.5762 19.7695H1.50195V4.92188H11.3457V3.69141C10.6672 3.69141 10.1152 3.13946 10.1152 2.46094C10.1152 1.78658 10.6606 1.23047 11.3457 1.23047C12.0242 1.23047 12.5762 1.78242 12.5762 2.46094V19.7695Z" fill="#667380"/>
<path d="M4.57818 8.39944L3.7827 7.60413L2.91272 8.47411L4.57818 10.1397L7.47411 7.24364L6.60413 6.37366L4.57818 8.39944Z" fill="#667380"/>
<path d="M8.62987 9.77919L9.50001 8.90921L10.3701 9.77919L11.2401 8.90921L10.3701 8.03907L11.2401 7.16893L10.3701 6.29895L9.50001 7.16893L8.62987 6.29895L7.75989 7.16893L8.62987 8.03907L7.75989 8.90921L8.62987 9.77919Z" fill="#667380"/>
<path d="M2.73242 11.1152H6.42383V12.3457H2.73242V11.1152Z" fill="#667380"/>
<path d="M7.6543 11.1152H11.3457V12.3457H7.6543V11.1152Z" fill="#667380"/>
<path d="M2.73242 13.5762H6.42383V14.8066H2.73242V13.5762Z" fill="#667380"/>
<path d="M7.6543 13.5762H11.3457V14.8066H7.6543V13.5762Z" fill="#667380"/>
<path d="M2.73242 16.0781H6.42383V17.3086H2.73242V16.0781Z" fill="#667380"/>
<path d="M7.6543 16.0781H11.3457V17.3086H7.6543V16.0781Z" fill="#667380"/>
<path d="M15.0371 4.92188V16.8385L16.8828 20.5299L18.7285 16.8385V4.92188H15.0371ZM17.498 6.15234V7.432H16.2676V6.15234H17.498ZM16.2676 16.0781V8.6543H17.498V16.0781H16.2676ZM16.6478 17.3086H17.1179L16.8828 17.7787L16.6478 17.3086Z" fill="#667380"/>
</svg>
